<svg width="393" height="393" viewBox="0 0 393 393" fill="none" xmlns="http://www.w3.org/2000/svg">
<circle cx="196.065" cy="196.935" r="196.065" fill="#262645"/>
<circle cx="182" cy="90" r="29" fill="white"/>
<ellipse cx="172" cy="120.5" rx="31" ry="31.5" fill="#262645"/>
<ellipse cx="145.976" cy="199.691" rx="34.1163" ry="109.5" transform="rotate(17.2031 145.976 199.691)" fill="white"/>
<ellipse cx="174.213" cy="233.668" rx="34.1163" ry="109.5" transform="rotate(-16.141 174.213 233.668)" fill="white"/>
<ellipse cx="229" cy="200" rx="76" ry="79" fill="#262645"/>
<ellipse cx="235.182" cy="197.359" rx="52.2032" ry="47.1191" transform="rotate(-38.4306 235.182 197.359)" fill="#C4C4C4"/>
<path d="M193 97.0118L197.053 89.7935C198.68 86.8953 200.015 83.842 201.036 80.6789L204 71.5V71.5C208.488 76.1051 211 82.2812 211 88.7116V91.2235V92.217C211 99.518 207.69 106.425 202 111V111L200.851 108.644C198.958 104.764 196.571 101.146 193.75 97.8798L193 97.0118Z" fill="#C4C4C4" stroke="#C4C4C4"/>
<path d="M147.587 234.756L157.893 283.845C158.958 288.918 160.805 293.793 163.368 298.298L173.275 315.711C175.084 318.891 177.293 321.826 179.846 324.445L189.13 333.967C193.121 338.06 198.862 339.94 204.5 339C210.793 335.854 215.229 329.919 216.465 322.994L218.794 309.956C219.263 307.327 219.428 304.654 219.285 301.987L218 278C185.449 271.972 159.945 246.566 153.791 214.039L153.5 212.5V197.596C153.5 170.37 168.229 145.275 192 132L190.91 120.735C190.637 117.917 190.125 115.127 189.381 112.395L187.5 105.5L155.731 170.053C145.862 190.105 142.995 212.884 147.587 234.756Z" fill="#C4C4C4" stroke="#C4C4C4"/>
<ellipse cx="215.247" cy="208.259" rx="23.4223" ry="25.9478" transform="rotate(-27.2193 215.247 208.259)" fill="white"/>
</svg>
